<svg width="191" height="35" viewBox="0 0 191 35" fill="none" xmlns="http://www.w3.org/2000/svg">
<path d="M8.51367 22.9395L13.6113 1.40625H16.459L17.1094 4.99219L11.6777 27H8.61914L8.51367 22.9395ZM5.89453 1.40625L10.1133 22.9395L9.76172 27H6.35156L0.673828 1.40625H5.89453ZM21.5918 22.8516L25.7578 1.40625H30.9785L25.3184 27H21.9082L21.5918 22.8516ZM18.0586 1.40625L23.1914 23.0273L23.0508 27H19.9922L14.5254 4.97461L15.2285 1.40625H18.0586ZM43.1953 22.7109V14.2383C43.1953 13.6289 43.0957 13.1074 42.8965 12.6738C42.6973 12.2285 42.3867 11.8828 41.9648 11.6367C41.5547 11.3906 41.0215 11.2676 40.3652 11.2676C39.8027 11.2676 39.3164 11.3672 38.9062 11.5664C38.4961 11.7539 38.1797 12.0293 37.957 12.3926C37.7344 12.7441 37.623 13.1602 37.623 13.6406H32.5605C32.5605 12.832 32.748 12.0645 33.123 11.3379C33.498 10.6113 34.043 9.97266 34.7578 9.42188C35.4727 8.85938 36.3223 8.41992 37.3066 8.10352C38.3027 7.78711 39.416 7.62891 40.6465 7.62891C42.123 7.62891 43.4355 7.875 44.584 8.36719C45.7324 8.85938 46.6348 9.59766 47.291 10.582C47.959 11.5664 48.293 12.7969 48.293 14.2734V22.4121C48.293 23.4551 48.3574 24.3105 48.4863 24.9785C48.6152 25.6348 48.8027 26.209 49.0488 26.7012V27H43.9336C43.6875 26.4844 43.5 25.8398 43.3711 25.0664C43.2539 24.2812 43.1953 23.4961 43.1953 22.7109ZM43.8633 15.416L43.8984 18.2812H41.0684C40.4004 18.2812 39.8203 18.3574 39.3281 18.5098C38.8359 18.6621 38.4316 18.8789 38.1152 19.1602C37.7988 19.4297 37.5645 19.7461 37.4121 20.1094C37.2715 20.4727 37.2012 20.8711 37.2012 21.3047C37.2012 21.7383 37.3008 22.1309 37.5 22.4824C37.6992 22.8223 37.9863 23.0918 38.3613 23.291C38.7363 23.4785 39.1758 23.5723 39.6797 23.5723C40.4414 23.5723 41.1035 23.4199 41.666 23.1152C42.2285 22.8105 42.6621 22.4355 42.9668 21.9902C43.2832 21.5449 43.4473 21.123 43.459 20.7246L44.7949 22.8691C44.6074 23.3496 44.3496 23.8477 44.0215 24.3633C43.7051 24.8789 43.3008 25.3652 42.8086 25.8223C42.3164 26.2676 41.7246 26.6367 41.0332 26.9297C40.3418 27.2109 39.5215 27.3516 38.5723 27.3516C37.3652 27.3516 36.2695 27.1113 35.2852 26.6309C34.3125 26.1387 33.5391 25.4648 32.9648 24.6094C32.4023 23.7422 32.1211 22.7578 32.1211 21.6562C32.1211 20.6602 32.3086 19.7754 32.6836 19.002C33.0586 18.2285 33.6094 17.5781 34.3359 17.0508C35.0742 16.5117 35.9941 16.1074 37.0957 15.8379C38.1973 15.5566 39.4746 15.416 40.9277 15.416H43.8633ZM61.5117 7.98047V11.5664H50.4375V7.98047H61.5117ZM53.1797 3.28711H58.2422V21.2695C58.2422 21.8203 58.3125 22.2422 58.4531 22.5352C58.6055 22.8281 58.8281 23.0332 59.1211 23.1504C59.4141 23.2559 59.7832 23.3086 60.2285 23.3086C60.5449 23.3086 60.8262 23.2969 61.0723 23.2734C61.3301 23.2383 61.5469 23.2031 61.7227 23.168L61.7402 26.8945C61.3066 27.0352 60.8379 27.1465 60.334 27.2285C59.8301 27.3105 59.2734 27.3516 58.6641 27.3516C57.5508 27.3516 56.5781 27.1699 55.7461 26.8066C54.9258 26.4316 54.293 25.834 53.8477 25.0137C53.4023 24.1934 53.1797 23.1152 53.1797 21.7793V3.28711ZM72.252 23.3965C72.873 23.3965 73.4238 23.2793 73.9043 23.0449C74.3848 22.7988 74.7598 22.459 75.0293 22.0254C75.3105 21.5801 75.457 21.0586 75.4688 20.4609H80.2324C80.2207 21.7969 79.8633 22.9863 79.1602 24.0293C78.457 25.0605 77.5137 25.875 76.3301 26.4727C75.1465 27.0586 73.8223 27.3516 72.3574 27.3516C70.8809 27.3516 69.5918 27.1055 68.4902 26.6133C67.4004 26.1211 66.4922 25.4414 65.7656 24.5742C65.0391 23.6953 64.4941 22.6758 64.1309 21.5156C63.7676 20.3438 63.5859 19.0898 63.5859 17.7539V17.2441C63.5859 15.8965 63.7676 14.6426 64.1309 13.4824C64.4941 12.3105 65.0391 11.291 65.7656 10.4238C66.4922 9.54492 67.4004 8.85938 68.4902 8.36719C69.5801 7.875 70.8574 7.62891 72.3223 7.62891C73.8809 7.62891 75.2461 7.92773 76.418 8.52539C77.6016 9.12305 78.5273 9.97852 79.1953 11.0918C79.875 12.1934 80.2207 13.5 80.2324 15.0117H75.4688C75.457 14.3789 75.3223 13.8047 75.0645 13.2891C74.8184 12.7734 74.4551 12.3633 73.9746 12.0586C73.5059 11.7422 72.9258 11.584 72.2344 11.584C71.4961 11.584 70.8926 11.7422 70.4238 12.0586C69.9551 12.3633 69.5918 12.7852 69.334 13.3242C69.0762 13.8516 68.8945 14.4551 68.7891 15.1348C68.6953 15.8027 68.6484 16.5059 68.6484 17.2441V17.7539C68.6484 18.4922 68.6953 19.2012 68.7891 19.8809C68.8828 20.5605 69.0586 21.1641 69.3164 21.6914C69.5859 22.2188 69.9551 22.6348 70.4238 22.9395C70.8926 23.2441 71.502 23.3965 72.252 23.3965ZM88.1074 0V27H83.0449V0H88.1074ZM87.3867 16.8223H85.998C86.0098 15.498 86.1855 14.2793 86.5254 13.166C86.8652 12.041 87.3516 11.0684 87.9844 10.248C88.6172 9.41602 89.373 8.77148 90.252 8.31445C91.1426 7.85742 92.127 7.62891 93.2051 7.62891C94.1426 7.62891 94.9922 7.76367 95.7539 8.0332C96.5273 8.29102 97.1895 8.71289 97.7402 9.29883C98.3027 9.87305 98.7363 10.6289 99.041 11.5664C99.3457 12.5039 99.498 13.6406 99.498 14.9766V27H94.4004V14.9414C94.4004 14.0977 94.2773 13.4355 94.0312 12.9551C93.7969 12.4629 93.4512 12.1172 92.9941 11.918C92.5488 11.707 91.998 11.6016 91.3418 11.6016C90.6152 11.6016 89.9941 11.7363 89.4785 12.0059C88.9746 12.2754 88.5703 12.6504 88.2656 13.1309C87.9609 13.5996 87.7383 14.1504 87.5977 14.7832C87.457 15.416 87.3867 16.0957 87.3867 16.8223ZM108.691 7.98047V27H103.611V7.98047H108.691ZM103.295 3.02344C103.295 2.28516 103.553 1.67578 104.068 1.19531C104.584 0.714844 105.275 0.474609 106.143 0.474609C106.998 0.474609 107.684 0.714844 108.199 1.19531C108.727 1.67578 108.99 2.28516 108.99 3.02344C108.99 3.76172 108.727 4.37109 108.199 4.85156C107.684 5.33203 106.998 5.57227 106.143 5.57227C105.275 5.57227 104.584 5.33203 104.068 4.85156C103.553 4.37109 103.295 3.76172 103.295 3.02344ZM117.832 12.041V27H112.77V7.98047H117.516L117.832 12.041ZM117.094 16.8223H115.723C115.723 15.416 115.904 14.1504 116.268 13.0254C116.631 11.8887 117.141 10.9219 117.797 10.125C118.453 9.31641 119.232 8.70117 120.135 8.2793C121.049 7.8457 122.068 7.62891 123.193 7.62891C124.084 7.62891 124.898 7.75781 125.637 8.01562C126.375 8.27344 127.008 8.68359 127.535 9.24609C128.074 9.80859 128.484 10.5527 128.766 11.4785C129.059 12.4043 129.205 13.5352 129.205 14.8711V27H124.107V14.8535C124.107 14.0098 123.99 13.3535 123.756 12.8848C123.521 12.416 123.176 12.0879 122.719 11.9004C122.273 11.7012 121.723 11.6016 121.066 11.6016C120.387 11.6016 119.795 11.7363 119.291 12.0059C118.799 12.2754 118.389 12.6504 118.061 13.1309C117.744 13.5996 117.504 14.1504 117.34 14.7832C117.176 15.416 117.094 16.0957 117.094 16.8223ZM145.096 7.98047H149.684V26.3672C149.684 28.1016 149.297 29.5723 148.523 30.7793C147.762 31.998 146.695 32.918 145.324 33.5391C143.953 34.1719 142.359 34.4883 140.543 34.4883C139.746 34.4883 138.902 34.3828 138.012 34.1719C137.133 33.9609 136.289 33.6328 135.48 33.1875C134.684 32.7422 134.016 32.1797 133.477 31.5L135.709 28.5117C136.295 29.1914 136.975 29.7188 137.748 30.0938C138.521 30.4805 139.377 30.6738 140.314 30.6738C141.229 30.6738 142.002 30.5039 142.635 30.1641C143.268 29.8359 143.754 29.3496 144.094 28.7051C144.434 28.0723 144.604 27.3047 144.604 26.4023V12.375L145.096 7.98047ZM132.299 17.7188V17.3496C132.299 15.8965 132.475 14.5781 132.826 13.3945C133.189 12.1992 133.699 11.1738 134.355 10.3184C135.023 9.46289 135.832 8.80078 136.781 8.33203C137.73 7.86328 138.803 7.62891 139.998 7.62891C141.264 7.62891 142.324 7.86328 143.18 8.33203C144.035 8.80078 144.738 9.46875 145.289 10.3359C145.84 11.1914 146.268 12.2051 146.572 13.377C146.889 14.5371 147.135 15.8086 147.311 17.1914V18C147.135 19.3242 146.871 20.5547 146.52 21.6914C146.168 22.8281 145.705 23.8242 145.131 24.6797C144.557 25.5234 143.842 26.1797 142.986 26.6484C142.143 27.1172 141.135 27.3516 139.963 27.3516C138.791 27.3516 137.73 27.1113 136.781 26.6309C135.844 26.1504 135.041 25.4766 134.373 24.6094C133.705 23.7422 133.189 22.7227 132.826 21.5508C132.475 20.3789 132.299 19.1016 132.299 17.7188ZM137.361 17.3496V17.7188C137.361 18.5039 137.438 19.2363 137.59 19.916C137.742 20.5957 137.977 21.1992 138.293 21.7266C138.621 22.2422 139.025 22.6465 139.506 22.9395C139.998 23.2207 140.578 23.3613 141.246 23.3613C142.172 23.3613 142.928 23.168 143.514 22.7812C144.1 22.3828 144.539 21.8379 144.832 21.1465C145.125 20.4551 145.295 19.6582 145.342 18.7559V16.4531C145.318 15.7148 145.219 15.0527 145.043 14.4668C144.867 13.8691 144.621 13.3594 144.305 12.9375C143.988 12.5156 143.578 12.1875 143.074 11.9531C142.57 11.7188 141.973 11.6016 141.281 11.6016C140.613 11.6016 140.033 11.7539 139.541 12.0586C139.061 12.3516 138.656 12.7559 138.328 13.2715C138.012 13.7871 137.771 14.3965 137.607 15.0996C137.443 15.791 137.361 16.541 137.361 17.3496ZM169.406 7.98047V27H164.326V7.98047H169.406ZM164.01 3.02344C164.01 2.28516 164.268 1.67578 164.783 1.19531C165.299 0.714844 165.99 0.474609 166.857 0.474609C167.713 0.474609 168.398 0.714844 168.914 1.19531C169.441 1.67578 169.705 2.28516 169.705 3.02344C169.705 3.76172 169.441 4.37109 168.914 4.85156C168.398 5.33203 167.713 5.57227 166.857 5.57227C165.99 5.57227 165.299 5.33203 164.783 4.85156C164.268 4.37109 164.01 3.76172 164.01 3.02344ZM172.781 17.6836V17.3145C172.781 15.9199 172.98 14.6367 173.379 13.4648C173.777 12.2812 174.357 11.2559 175.119 10.3887C175.881 9.52148 176.818 8.84766 177.932 8.36719C179.045 7.875 180.322 7.62891 181.764 7.62891C183.205 7.62891 184.488 7.875 185.613 8.36719C186.738 8.84766 187.682 9.52148 188.443 10.3887C189.217 11.2559 189.803 12.2812 190.201 13.4648C190.6 14.6367 190.799 15.9199 190.799 17.3145V17.6836C190.799 19.0664 190.6 20.3496 190.201 21.5332C189.803 22.7051 189.217 23.7305 188.443 24.6094C187.682 25.4766 186.744 26.1504 185.631 26.6309C184.518 27.1113 183.24 27.3516 181.799 27.3516C180.357 27.3516 179.074 27.1113 177.949 26.6309C176.836 26.1504 175.893 25.4766 175.119 24.6094C174.357 23.7305 173.777 22.7051 173.379 21.5332C172.98 20.3496 172.781 19.0664 172.781 17.6836ZM177.844 17.3145V17.6836C177.844 18.4805 177.914 19.2246 178.055 19.916C178.195 20.6074 178.418 21.2168 178.723 21.7441C179.039 22.2598 179.449 22.6641 179.953 22.957C180.457 23.25 181.072 23.3965 181.799 23.3965C182.502 23.3965 183.105 23.25 183.609 22.957C184.113 22.6641 184.518 22.2598 184.822 21.7441C185.127 21.2168 185.35 20.6074 185.49 19.916C185.643 19.2246 185.719 18.4805 185.719 17.6836V17.3145C185.719 16.541 185.643 15.8145 185.49 15.1348C185.35 14.4434 185.121 13.834 184.805 13.3066C184.5 12.7676 184.096 12.3457 183.592 12.041C183.088 11.7363 182.479 11.584 181.764 11.584C181.049 11.584 180.439 11.7363 179.936 12.041C179.443 12.3457 179.039 12.7676 178.723 13.3066C178.418 13.834 178.195 14.4434 178.055 15.1348C177.914 15.8145 177.844 16.541 177.844 17.3145Z" fill="white"/>
<path d="M153.867 24.5566C153.867 23.8066 154.125 23.1797 154.641 22.6758C155.168 22.1719 155.865 21.9199 156.732 21.9199C157.6 21.9199 158.291 22.1719 158.807 22.6758C159.334 23.1797 159.598 23.8066 159.598 24.5566C159.598 25.3066 159.334 25.9336 158.807 26.4375C158.291 26.9414 157.6 27.1934 156.732 27.1934C155.865 27.1934 155.168 26.9414 154.641 26.4375C154.125 25.9336 153.867 25.3066 153.867 24.5566Z" fill="#FF0000"/>
</svg>
